<svg width="29" height="34" viewBox="0 0 29 34" fill="none" xmlns="http://www.w3.org/2000/svg">
<path d="M0.500027 6V28H3.50003V6H0.500027ZM6.00003 33.5H22.6269V30.5H6.00003V33.5ZM28.1269 28V22.7955H25.1269V28H28.1269ZM28.1269 11.2045V6H25.1269V11.2045H28.1269ZM22.6269 0.5L6.00002 0.5V3.5L22.6269 3.5V0.5ZM28.1269 6C28.1269 2.96243 25.6645 0.5 22.6269 0.5V3.5C24.0076 3.5 25.1269 4.61929 25.1269 6H28.1269ZM22.6269 33.5C25.6645 33.5 28.1269 31.0376 28.1269 28H25.1269C25.1269 29.3807 24.0076 30.5 22.6269 30.5V33.5ZM0.500027 28C0.500027 31.0376 2.96246 33.5 6.00003 33.5V30.5C4.61932 30.5 3.50003 29.3807 3.50003 28H0.500027ZM3.50003 6C3.50003 4.61929 4.61931 3.5 6.00002 3.5V0.5C2.96246 0.5 0.500027 2.96244 0.500027 6H3.50003Z" fill="white"/>
<circle cx="15" cy="12" r="3.5" stroke="white" stroke-width="3"/>
<path d="M9 24.89C9 25.3791 9.49531 20 14.9437 20C20.392 20 21.3826 25.8681 20.8873 24.89" stroke="white" stroke-width="3"/>
</svg>
