<svg width="29" height="34" viewBox="0 0 29 34" fill="none" xmlns="http://www.w3.org/2000/svg">
<path d="M0.500027 6V28H3.50003V6H0.500027ZM6.00003 33.5H22.6269V30.5H6.00003V33.5ZM28.1269 28V22.7955H25.1269V28H28.1269ZM28.1269 11.2045V6H25.1269V11.2045H28.1269ZM22.6269 0.5L6.00002 0.5V3.5L22.6269 3.5V0.5ZM28.1269 6C28.1269 2.96243 25.6645 0.5 22.6269 0.5V3.5C24.0076 3.5 25.1269 4.61929 25.1269 6H28.1269ZM22.6269 33.5C25.6645 33.5 28.1269 31.0376 28.1269 28H25.1269C25.1269 29.3807 24.0076 30.5 22.6269 30.5V33.5ZM0.500027 28C0.500027 31.0376 2.96246 33.5 6.00003 33.5V30.5C4.61932 30.5 3.50003 29.3807 3.50003 28H0.500027ZM3.50003 6C3.50003 4.61929 4.61931 3.5 6.00002 3.5V0.5C2.96246 0.5 0.500027 2.96244 0.500027 6H3.50003Z" fill="white"/>
<path d="M28.0607 17.7197C28.6465 17.134 28.6465 16.1842 28.0607 15.5984L18.5147 6.05249C17.929 5.4667 16.9792 5.4667 16.3934 6.05249C15.8076 6.63827 15.8076 7.58802 16.3934 8.17381L24.8787 16.6591L16.3934 25.1444C15.8076 25.7302 15.8076 26.6799 16.3934 27.2657C16.9792 27.8515 17.929 27.8515 18.5147 27.2657L28.0607 17.7197ZM12.0746 18.1591H27V15.1591H12.0746V18.1591Z" fill="white"/>
</svg>
